<svg width="1200" height="500" viewBox="0 0 1200 500" xmlns="http://www.w3.org/2000/svg">
  <defs>
    <linearGradient id="orangeGrad" x1="0%" y1="0%" x2="100%" y2="100%">
      <stop offset="0%" stop-color="#ff9a1f"/>
      <stop offset="100%" stop-color="#ff5a1f"/>
    </linearGradient>
    <filter id="shadow" x="-20%" y="-20%" width="140%" height="140%">
      <feDropShadow dx="0" dy="10" stdDeviation="12" flood-opacity="0.18"/>
    </filter>
  </defs>

  <rect width="100%" height="100%" fill="#111111"/>

  <g transform="translate(170,70) skewX(-12)" filter="url(#shadow)">
    <!-- M -->
    <path d="
      M 40 330
      L 40 120
      L 95 50
      L 165 190
      L 235 50
      L 290 120
      L 290 330
      L 235 330
      L 235 155
      L 173 270
      L 157 270
      L 95 155
      L 95 330
      Z
    " fill="url(#orangeGrad)"/>

    <!-- G -->
    <path d="
      M 610 118
      Q 560 70 470 70
      Q 365 70 305 135
      Q 245 198 245 250
      Q 245 315 303 372
      Q 362 430 470 430
      Q 565 430 625 380
      L 625 287
      L 500 287
      L 500 340
      L 560 340
      L 560 354
      Q 526 375 475 375
      Q 404 375 364 338
      Q 324 301 324 250
      Q 324 198 364 161
      Q 404 125 475 125
      Q 532 125 570 154
      Z
    " fill="#ffffff"/>

    <!-- small notch for G -->
    <path d="
      M 500 228
      L 680 228
      L 680 278
      L 500 278
      Z
    " fill="#ffffff"/>

    <!-- orange accent slash -->
    <path d="
      M 705 98
      L 755 98
      L 690 400
      L 640 400
      Z
    " fill="url(#orangeGrad)" opacity="0.92"/>
  </g>
</svg>
